HIERARCHY
ROOT Hips
{
	OFFSET	0.00	0.00	0.00
	CHANNELS 6 Xposition Yposition Zposition Zrotation Xrotation Yrotation
	JOINT LeftUpLeg
	{
		OFFSET	 0.126116	-0.014019	-0.065224
		CHANNELS 3 Zrotation Xrotation Yrotation
		JOINT LeftLeg
		{
			OFFSET	 0.000000	 0.000000	 0.569914
			CHANNELS 3 Zrotation Xrotation Yrotation
			JOINT LeftFoot
			{
				OFFSET	 0.000000	 0.000000	 0.544423
				CHANNELS 3 Zrotation Xrotation Yrotation
				JOINT LeftToeBase
				{
					OFFSET	 0.000000	 0.000000	 0.207117
					CHANNELS 3 Zrotation Xrotation Yrotation
					End Site
					{
						OFFSET	 0.000000	 0.000000	 0.207117
					}
				}
			}
		}
	}
	JOINT RightUpLeg
	{
		OFFSET	-0.124023	-0.008373	-0.065224
		CHANNELS 3 Zrotation Xrotation Yrotation
		JOINT RightLeg
		{
			OFFSET	 0.000000	 0.000000	 0.570047
			CHANNELS 3 Zrotation Xrotation Yrotation
			JOINT RightFoot
			{
				OFFSET	 0.000000	 0.000000	 0.544354
				CHANNELS 3 Zrotation Xrotation Yrotation
				JOINT RightToeBase
				{
					OFFSET	 0.000000	 0.000000	 0.207540
					CHANNELS 3 Zrotation Xrotation Yrotation
					End Site
					{
						OFFSET	 0.000000	 0.000000	 0.207540
					}
				}
			}
		}
	}
	JOINT Spine
	{
		OFFSET	 0.000184	-0.007763	 0.117403
		CHANNELS 3 Zrotation Xrotation Yrotation
		JOINT Spine1
		{
			OFFSET	 0.000000	 0.000000	 0.137269
			CHANNELS 3 Zrotation Xrotation Yrotation
			JOINT Spine2
			{
				OFFSET	 0.000000	 0.000000	 0.156879
				CHANNELS 3 Zrotation Xrotation Yrotation
				JOINT LeftShoulder
				{
					OFFSET	 0.080501	-0.002496	 0.160144
					CHANNELS 3 Zrotation Xrotation Yrotation
					JOINT LeftArm
					{
						OFFSET	 0.000000	 0.000000	 0.164363
						CHANNELS 3 Zrotation Xrotation Yrotation
						JOINT LeftForeArm
						{
							OFFSET	 0.000000	 0.000000	 0.364576
							CHANNELS 3 Zrotation Xrotation Yrotation
							JOINT LeftHand
							{
								OFFSET	 0.000000	 0.000000	 0.360812
								CHANNELS 3 Zrotation Xrotation Yrotation
								JOINT LeftHandIndex1
								{
									OFFSET	 0.000000	 0.000000	 0.086006
									CHANNELS 3 Zrotation Xrotation Yrotation
									JOINT LeftHandIndex2
									{
										OFFSET	 0.000000	 0.000000	 0.047237
										CHANNELS 3 Zrotation Xrotation Yrotation
										JOINT LeftHandIndex3
										{
											OFFSET	-0.004284	-0.000551	 0.038165
											CHANNELS 3 Zrotation Xrotation Yrotation
											End Site
											{
												OFFSET	-0.004284	-0.000551	 0.038165
											}
										}
									}
								}
							}
						}
					}
				}
				JOINT Neck
				{
					OFFSET	 0.000000	 0.000000	 0.176489
					CHANNELS 3 Zrotation Xrotation Yrotation
					JOINT Head
					{
						OFFSET	 0.000000	-0.001747	 0.077940
						CHANNELS 3 Zrotation Xrotation Yrotation
						End Site
						{
							OFFSET	 0.000000	-0.001747	 0.077940
						}
					}
				}
				JOINT RightShoulder
				{
					OFFSET	-0.080363	 0.000306	 0.159706
					CHANNELS 3 Zrotation Xrotation Yrotation
					JOINT RightArm
					{
						OFFSET	 0.000000	 0.000000	 0.164196
						CHANNELS 3 Zrotation Xrotation Yrotation
						JOINT RightForeArm
						{
							OFFSET	 0.000000	 0.000000	 0.365611
							CHANNELS 3 Zrotation Xrotation Yrotation
							JOINT RightHand
							{
								OFFSET	 0.000000	 0.000000	 0.360648
								CHANNELS 3 Zrotation Xrotation Yrotation
								JOINT RightHandIndex1
								{
									OFFSET	 0.000000	 0.000000	 0.069977
									CHANNELS 3 Zrotation Xrotation Yrotation
									JOINT RightHandIndex2
									{
										OFFSET	 0.000000	 0.000000	 0.052305
										CHANNELS 3 Zrotation Xrotation Yrotation
										JOINT RightHandIndex3
										{
											OFFSET	 0.009002	-0.000782	 0.042196
											CHANNELS 3 Zrotation Xrotation Yrotation
											End Site
											{
												OFFSET	 0.009002	-0.000782	 0.042196
											}
										}
									}
								}
							}
						}
					}
				}
			}
		}
	}
}
MOTION
Frames:    9
Frame Time: 0.03333334
-0.710897	-1.662489	 1.272788	 179.981200	 0.263861	 0.103736	-18.813580	-2.035948	-178.954900	 6.078822	-11.307330	 1.584631	-27.833710	 71.005720	 8.368094	-2.385833	 28.452760	 0.000004	 8.825988	-2.483057	 177.837500	-19.824410	-12.048440	-1.877331	 32.989790	 71.133750	-10.110790	 2.384659	 28.388700	-0.000001	-15.416080	 0.778239	-1.759894	-9.411820	 10.389690	 8.993629	 23.302020	-18.950270	-2.232222	-91.776180	 78.527360	-180.000000	-6.200422	-7.444878	-3.416011	-4.839287	-2.559229	-13.925430	 5.741313	-19.064000	-5.965736	-4.131196	 21.524690	 0.986298	-5.167839	 0.733520	 3.519257	-1.378229	 35.397820	-2.634230	 0.000022	-3.783157	-0.089647	-10.198440	 9.130936	 0.816501	 89.782070	 78.203890	-180.000000	 5.823038	-4.456389	-5.980510	 7.754195	-4.693619	 42.666560	 16.393970	 0.505489	 41.064400	 5.715225	 19.176060	-3.692089	 5.027514	 0.245388	-9.378011	-2.350882	 35.473990	 5.254307
-0.712634	-1.661084	 1.273096	-177.218500	 4.201753	-2.583013	-16.286260	-4.107533	-177.650100	-0.552138	-5.801022	 0.141529	-17.655650	 55.934280	 6.273579	-2.385833	 28.452760	 0.000004	 5.911500	-8.528366	-179.114500	-4.929037	-17.098440	 1.761479	 5.667238	 75.309200	 3.979159	 2.384659	 28.388700	-0.000001	-18.662910	 6.965286	 5.900649	-9.844593	-8.553212	-8.205361	 24.841910	-7.762071	 3.762078	-91.776250	 78.527400	-180.000000	-30.421000	-1.948339	-2.588793	-5.484285	-4.123598	-23.111520	 8.055891	-20.007440	-5.039532	-4.131196	 21.524690	 0.986298	-5.167839	 0.733520	 3.519257	-1.378229	 35.397820	-2.634230	 1.640028	 5.891353	-0.196409	-8.517035	-7.008504	-2.812911	 89.782190	 78.203900	 179.999900	-19.010410	-6.709697	-12.257810	-0.320231	-13.686820	 45.368800	 6.972507	 35.605900	 87.027190	 5.715225	 19.176060	-3.692089	 5.027514	 0.245388	-9.378011	-2.350882	 35.473990	 5.254307
-0.710775	-1.658674	 1.272743	-176.591000	 4.687678	-3.686310	-15.352730	-4.906027	-176.886500	-0.806638	-6.624267	 0.132158	-17.102590	 53.542280	 6.564790	-2.385833	 28.452760	 0.000004	 8.004029	-10.185890	-177.927300	-4.655597	-19.574970	 2.099620	-2.701756	 80.763210	 12.670880	 2.384659	 28.388700	-0.000001	-19.811760	 7.512937	 7.251322	-10.734420	-10.836070	-9.314518	 24.723080	-6.425738	 3.250851	-91.776150	 78.527420	 180.000000	-33.121770	 1.672645	 4.859751	-7.248723	-5.987193	-37.289060	 7.057206	-20.757460	-4.721009	-4.131196	 21.524690	 0.986298	-5.167839	 0.733520	 3.519257	-1.378229	 35.397820	-2.634230	 1.626214	 7.314736	 0.298100	-8.124217	-8.829455	-3.037511	 89.782120	 78.203870	 180.000000	-22.722570	-5.817475	-14.415020	 0.067008	-15.804320	 50.255270	 6.540239	 39.284530	 92.813290	 5.715225	 19.176060	-3.692089	 5.027514	 0.245388	-9.378011	-2.350882	 35.473990	 5.254307
-0.708900	-1.656226	 1.272298	-176.208600	 4.946843	-4.422123	-14.710430	-5.901700	-176.445900	-0.873415	-8.627996	 0.161844	-17.262160	 52.946100	 7.268183	-2.385833	 28.452760	 0.000004	 9.530096	-11.358660	-177.041400	-4.714991	-21.432600	 2.267777	-15.087650	 84.242860	 25.408330	 2.384659	 28.388700	-0.000001	-20.726940	 7.750937	 8.123194	-11.504610	-11.677970	-10.039980	 24.700200	-5.852710	 3.022263	-91.776180	 78.527430	-180.000000	-34.127030	 4.506207	 10.837940	-8.769547	-7.010129	-47.965450	 6.371875	-21.300490	-4.513331	-4.131196	 21.524690	 0.986298	-5.167839	 0.733520	 3.519257	-1.378229	 35.397820	-2.634230	 1.577193	 8.100750	 0.648260	-7.891290	-9.752773	-3.122283	 89.782200	 78.203930	 179.999900	-25.110850	-4.633871	-15.961350	 1.040073	-17.336770	 54.995900	 6.876008	 40.969660	 94.779590	 5.715225	 19.176060	-3.692089	 5.027514	 0.245388	-9.378011	-2.350882	 35.473990	 5.254307
-0.705550	-1.651802	 1.271321	-176.058700	 4.712032	-4.811739	-14.606490	-7.209915	-176.428700	 0.001275	-13.276770	 0.448771	-19.923820	 54.261270	 9.858667	-2.385833	 28.452760	 0.000004	 11.443760	-12.353670	-176.379300	-5.626113	-23.559740	 2.113143	-15.734730	 87.335160	 26.757970	 2.384659	 28.388700	-0.000001	-21.844220	 7.699006	 8.614249	-12.387830	-9.814520	-10.214580	 24.846210	-6.744645	 3.189971	-91.776210	 78.527400	-180.000000	-31.046450	 8.424842	 19.751750	-10.992520	-8.032816	-63.096670	 6.004097	-21.636750	-4.372433	-4.131196	 21.524690	 0.986298	-5.167839	 0.733520	 3.519257	-1.378229	 35.397820	-2.634230	 1.463837	 8.032880	 0.998994	-7.804908	-9.345073	-3.005674	 89.782200	 78.203920	 179.999900	-24.982580	-1.403066	-17.147700	 3.515544	-18.643280	 62.845020	 8.179403	 38.521270	 88.484010	 5.715225	 19.176060	-3.692089	 5.027514	 0.245388	-9.378011	-2.350882	 35.473990	 5.254307
-0.701612	-1.646426	 1.270143	-175.941000	 4.407992	-5.165551	-14.686790	-7.928466	-176.508200	 0.942723	-17.294370	 0.861247	-22.811390	 55.621960	 12.581850	-2.385833	 28.452760	 0.000004	 13.203000	-13.414090	-175.627400	-6.504412	-25.760800	 1.913562	 162.498900	 89.760150	-150.846300	 2.384659	 28.388700	-0.000001	-23.191030	 7.656674	 9.166387	-13.429140	-7.237917	-10.531790	 25.047670	-8.002264	 3.644419	-91.776180	 78.527380	 180.000000	-26.594560	 13.457930	 28.006270	-13.148750	-8.423744	-77.243740	 5.692677	-21.939250	-4.249735	-4.131196	 21.524690	 0.986298	-5.167839	 0.733520	 3.519257	-1.378229	 35.397820	-2.634230	 1.361428	 7.931871	 1.308302	-7.735779	-8.923177	-2.894572	 89.782060	 78.203900	-180.000000	-24.365060	 3.153462	-17.466080	 6.129676	-19.573430	 70.682480	 7.295685	 35.605390	 82.300470	 5.715225	 19.176060	-3.692089	 5.027514	 0.245388	-9.378011	-2.350882	 35.473990	 5.254307
-0.696097	-1.637934	 1.268469	-175.848000	 3.869360	-5.418268	-15.591570	-8.128476	-176.838700	 2.266844	-21.967230	 1.580673	-27.206920	 57.139970	 16.906210	-2.385833	 28.452760	 0.000004	 13.872820	-14.906790	-174.666300	-6.739018	-28.389690	 1.981266	 103.777400	 88.368770	-92.151030	 2.384659	 28.388700	-0.000001	-25.221630	 7.630865	 10.043650	-14.864240	-2.252377	-11.713450	 25.524960	-10.452640	 5.504963	-91.776190	 78.527420	-180.000000	-18.206280	 22.262160	 35.405390	-15.473760	-8.086076	-93.021770	 5.277927	-22.323590	-4.102773	-4.131196	 21.524690	 0.986298	-5.167839	 0.733520	 3.519257	-1.378229	 35.397820	-2.634230	 1.483763	 8.043510	 1.290522	-7.608297	-9.223041	-2.936564	 89.782130	 78.203900	 180.000000	-23.377420	 11.809180	-16.161860	 9.060973	-20.358600	 79.284250	 1.363419	 32.048030	 76.518660	 5.715225	 19.176060	-3.692089	 5.027514	 0.245388	-9.378011	-2.350882	 35.473990	 5.254307
-0.690657	-1.629080	 1.266973	-175.794500	 3.436239	-5.566387	-16.607750	-7.721905	-177.232700	 3.516151	-25.379420	 2.349580	-31.494550	 58.389480	 21.048320	-2.385833	 28.452760	 0.000004	 14.425690	-16.321910	-173.672800	-6.880465	-30.511720	 2.043414	 92.983910	 86.927890	-81.569570	 2.384659	 28.388700	-0.000001	-27.291650	 7.458253	 10.621010	-16.296780	 3.000144	-12.214720	 26.132560	-13.166870	 7.138822	-91.776150	 78.527400	 180.000000	-6.086694	 31.906370	 34.450850	-16.712880	-7.469766	-102.600800	 4.935116	-22.653650	-3.978793	-4.131196	 21.524690	 0.986298	-5.167839	 0.733520	 3.519257	-1.378229	 35.397820	-2.634230	 1.598849	 8.148928	 1.252006	-7.501839	-9.517908	-2.980014	 89.782120	 78.203930	 180.000000	-22.214410	 22.117670	-13.445410	 10.574740	-20.620080	 83.625870	-9.131534	 29.261590	 74.359180	 5.715225	 19.176060	-3.692089	 5.027514	 0.245388	-9.378011	-2.350882	 35.473990	 5.254307
-0.683183	-1.615904	 1.265419	-175.876100	 3.389332	-5.443294	-18.378740	-6.870574	-178.086200	 4.468301	-28.860940	 3.109014	-35.746480	 59.167830	 25.658560	-2.385833	 28.452760	 0.000004	 14.973190	-18.606000	-172.340700	-6.519270	-32.632340	 2.365742	 48.500160	 82.012200	-38.384900	 2.384659	 28.388700	-0.000001	-30.017190	 6.971490	 10.291920	-18.454070	 9.739126	-11.485370	 26.998800	-16.894640	 8.693548	-91.776180	 78.527400	 180.000000	 14.843680	 41.797680	 16.843400	-16.998000	-7.176194	-105.244000	 4.772878	-22.897610	-3.933483	-4.131196	 21.524690	 0.986298	-5.167839	 0.733520	 3.519257	-1.378229	 35.397820	-2.634230	 1.723168	 8.222507	 1.062725	-7.457802	-9.661294	-2.878995	 89.782010	 78.203900	-179.999900	-21.196920	 37.434210	-8.512044	 10.095190	-20.973480	 82.405170	-27.407330	 23.947060	 76.633290	 5.715225	 19.176060	-3.692089	 5.027514	 0.245388	-9.378011	-2.350882	 35.473990	 5.254307
